<?xml version="1.0" standalone="no"?>
<!DOCTYPE svg PUBLIC "-//W3C//DTD SVG 20010904//EN"
 "http://www.w3.org/TR/2001/REC-SVG-20010904/DTD/svg10.dtd">
<svg version="1.0" xmlns="http://www.w3.org/2000/svg"
 width="1772.000000pt" height="1772.000000pt" viewBox="0 0 1772.000000 1772.000000"
 preserveAspectRatio="xMidYMid meet">
<metadata>
Created by potrace 1.16, written by Peter Selinger 2001-2019
</metadata>
<g transform="translate(0.000000,1772.000000) scale(0.100000,-0.100000)"
fill="#000000" stroke="none">
<path d="M0 8860 l0 -8860 8860 0 8860 0 0 8860 0 8860 -8860 0 -8860 0 0
-8860z m11618 2729 c290 -31 492 -118 653 -278 192 -192 260 -402 246 -765
-19 -511 -207 -1022 -554 -1513 -154 -219 -436 -517 -648 -687 -119 -95 -330
-240 -438 -300 -37 -21 -67 -42 -67 -48 0 -28 133 -344 215 -513 187 -384 332
-587 652 -916 142 -145 206 -196 330 -259 l88 -46 3 -44 c5 -85 -60 -160 -138
-160 -72 0 -246 77 -367 162 -169 119 -308 261 -549 558 -314 387 -374 477
-531 793 -64 128 -117 234 -119 235 -1 2 -54 -14 -116 -36 -121 -43 -336 -103
-430 -122 l-57 -11 -15 -67 c-81 -355 -111 -549 -128 -814 -11 -180 -7 -286
19 -560 4 -40 1 -51 -21 -73 -53 -53 -170 -17 -250 77 -113 132 -153 280 -172
648 -9 172 18 533 52 698 l7 32 -54 0 c-126 0 -190 12 -237 44 -86 58 -118
139 -67 172 13 9 70 22 127 29 209 26 280 39 283 49 2 6 22 94 45 196 148 649
468 1565 733 2098 87 175 120 216 190 237 175 53 542 88 581 56 16 -13 15 -15
-2 -35 -107 -117 -499 -984 -742 -1641 -122 -330 -260 -758 -248 -771 2 -2 44
12 94 30 465 175 843 421 1179 767 228 235 381 452 529 750 137 274 223 541
276 854 79 459 -46 717 -390 811 -97 27 -322 25 -457 -4 -241 -52 -628 -212
-863 -358 -206 -127 -403 -311 -520 -485 -113 -170 -259 -484 -395 -849 -220
-594 -541 -1680 -589 -1995 -52 -341 -66 -775 -32 -989 24 -151 58 -254 106
-317 22 -30 40 -61 40 -71 0 -39 -106 -98 -176 -98 -106 0 -273 158 -344 326
-84 194 -128 616 -101 954 25 310 26 378 1 450 -48 144 -144 268 -274 354 -78
52 -219 121 -235 114 -4 -2 -83 -97 -176 -213 -616 -767 -1056 -1238 -1430
-1530 -257 -201 -416 -275 -593 -275 -109 0 -175 14 -259 55 -174 86 -323 349
-323 570 0 393 279 872 690 1185 446 340 1169 556 1708 512 80 -7 149 -9 152
-5 4 5 146 177 315 383 170 206 476 575 679 819 376 449 447 537 591 722 99
128 287 317 423 426 220 177 507 345 763 449 280 112 684 214 944 237 92 8
302 6 393 -4z"/>
<path d="M8830 9758 c-236 -343 -682 -961 -851 -1181 -55 -70 -99 -129 -99
-131 0 -2 37 -25 83 -51 45 -26 111 -71 146 -98 63 -50 177 -175 209 -229 9
-16 19 -28 23 -28 4 0 10 20 13 44 12 79 113 474 180 710 80 277 178 570 284
849 44 114 78 207 78 207 -1 0 -31 -42 -66 -92z"/>
<path d="M7025 8325 c-515 -69 -936 -243 -1241 -512 -115 -102 -182 -191 -254
-338 -85 -172 -130 -313 -130 -406 0 -97 15 -146 55 -186 30 -30 38 -33 93
-33 99 0 172 35 372 179 273 196 852 715 1285 1150 l160 161 -120 -1 c-66 -1
-165 -7 -220 -14z"/>
</g>
</svg>
