<?xml version="1.0" standalone="no"?>
<!DOCTYPE svg PUBLIC "-//W3C//DTD SVG 20010904//EN"
 "http://www.w3.org/TR/2001/REC-SVG-20010904/DTD/svg10.dtd">
<svg version="1.0" xmlns="http://www.w3.org/2000/svg"
 width="824.000000pt" height="824.000000pt" viewBox="0 0 824.000000 824.000000"
 preserveAspectRatio="xMidYMid meet">
<metadata>
Created by potrace 1.11, written by Peter Selinger 2001-2013
</metadata>
<g transform="translate(0.000000,824.000000) scale(0.100000,-0.100000)"
fill="#000000" stroke="none">
<path d="M0 4115 l0 -3365 4120 0 4120 0 0 3365 0 3365 -4120 0 -4120 0 0
-3365z m7260 2362 c390 -83 636 -303 723 -645 19 -76 22 -114 22 -302 0 -243
-14 -358 -70 -575 -186 -725 -694 -1420 -1370 -1874 -72 -48 -161 -105 -198
-125 -37 -21 -67 -42 -67 -48 0 -24 139 -356 211 -503 185 -382 338 -597 655
-924 139 -144 205 -196 331 -262 l88 -45 3 -50 c3 -58 -21 -103 -70 -135 -126
-78 -501 140 -779 453 -112 127 -421 513 -506 634 -83 116 -168 269 -271 484
-40 85 -75 156 -76 157 -1 2 -83 -24 -182 -56 -98 -32 -233 -71 -299 -87 -66
-15 -121 -28 -122 -29 -6 -4 -84 -378 -102 -490 -47 -298 -58 -613 -32 -864
l15 -134 -28 -23 c-84 -73 -244 23 -329 199 -58 119 -80 242 -93 521 -9 188
20 579 53 714 5 21 3 22 -78 22 -112 1 -163 12 -212 47 -107 75 -115 175 -16
188 235 31 346 49 355 56 6 5 17 37 23 72 37 189 169 667 278 1002 184 568
479 1269 596 1417 21 27 74 45 209 72 220 45 410 56 456 27 9 -5 1 -25 -33
-77 -142 -214 -491 -996 -715 -1599 -96 -258 -250 -730 -250 -766 0 -11 108
28 260 93 589 252 1103 695 1424 1227 342 564 511 1327 360 1623 -97 191 -332
301 -609 284 -206 -12 -400 -67 -705 -200 -369 -161 -613 -332 -801 -562 -249
-305 -534 -1020 -864 -2169 -204 -711 -247 -959 -248 -1430 0 -356 41 -556
140 -678 13 -16 23 -36 23 -46 0 -43 -102 -101 -177 -101 -115 0 -288 174
-357 360 -79 214 -115 609 -86 955 21 250 23 321 10 376 -28 123 -122 269
-227 353 -53 43 -263 157 -288 156 -5 -1 -35 -33 -65 -72 -99 -129 -411 -509
-573 -698 -571 -666 -1046 -1091 -1350 -1211 -141 -56 -337 -52 -465 9 -113
53 -220 181 -283 338 -42 104 -52 172 -46 294 18 310 182 640 467 934 377 390
934 635 1605 707 101 11 320 8 430 -6 l40 -5 235 287 c129 158 460 557 735
887 275 331 531 643 571 696 259 347 602 629 1020 838 169 84 276 127 470 187
390 121 604 156 919 150 164 -3 221 -8 315 -28z"/>
<path d="M4312 4654 c-125 -186 -570 -804 -754 -1049 -134 -178 -185 -252
-176 -258 7 -4 52 -31 100 -59 105 -62 202 -148 288 -258 l65 -81 18 88 c77
385 258 993 436 1467 50 132 90 241 88 242 -1 1 -31 -40 -65 -92z"/>
<path d="M2600 3243 c-578 -60 -1066 -262 -1381 -574 -88 -86 -153 -181 -214
-313 -103 -220 -135 -373 -102 -487 23 -79 52 -102 132 -107 58 -4 73 -1 139
31 217 103 577 398 1181 968 121 114 283 271 360 348 l140 141 -110 -2 c-61 0
-126 -3 -145 -5z"/>
</g>
</svg>
